<?xml version="1.0" encoding="UTF-8" standalone="no"?>
<!-- Created with Inkscape (http://www.inkscape.org/) -->

<svg
   width="89.264008mm"
   height="54.869652mm"
   viewBox="0 0 89.264008 54.869652"
   version="1.1"
   id="svg1"
   inkscape:version="1.3.2 (091e20ef0f, 2023-11-25)"
   sodipodi:docname="full.svg"
   xmlns:inkscape="http://www.inkscape.org/namespaces/inkscape"
   xmlns:sodipodi="http://sodipodi.sourceforge.net/DTD/sodipodi-0.dtd"
   xmlns="http://www.w3.org/2000/svg"
   xmlns:svg="http://www.w3.org/2000/svg">
  <sodipodi:namedview
     id="namedview1"
     pagecolor="#ffffff"
     bordercolor="#000000"
     borderopacity="0.25"
     inkscape:showpageshadow="2"
     inkscape:pageopacity="0.0"
     inkscape:pagecheckerboard="0"
     inkscape:deskcolor="#d1d1d1"
     inkscape:document-units="mm"
     inkscape:zoom="0.71713664"
     inkscape:cx="168.72656"
     inkscape:cy="103.88536"
     inkscape:window-width="1920"
     inkscape:window-height="1011"
     inkscape:window-x="0"
     inkscape:window-y="0"
     inkscape:window-maximized="1"
     inkscape:current-layer="layer1" />
  <defs
     id="defs1" />
  <g
     inkscape:label="Layer 1"
     inkscape:groupmode="layer"
     id="layer1"
     transform="translate(-60.5896,-121.17917)">
    <g
       id="g2">
      <g
         id="text4"
         style="font-style:oblique;font-weight:600;font-size:12.3936px;line-height:1;font-family:'URW Gothic';-inkscape-font-specification:'URW Gothic Semi-Bold Oblique';direction:rtl;fill:#01889f;stroke-width:0.877466"
         transform="matrix(1.3216902,0,-0.07619469,0.75660696,0,0)"
         aria-label="LEADING&#10;EDGE">
        <path
           style="font-style:italic;font-weight:bold;font-family:'Liberation Sans';-inkscape-font-specification:'Liberation Sans, Bold Italic'"
           d="m 68.764487,190.75621 1.652077,-8.52665 h 1.785211 l -1.385808,7.14689 h 4.574981 l -0.27232,1.37976 z m 7.570505,0 1.652077,-8.52665 H 84.6922 l -0.266268,1.37975 h -4.919921 l -0.417558,2.14226 h 4.550775 l -0.266268,1.37975 h -4.550775 l -0.435713,2.24513 h 5.168035 l -0.272321,1.37976 z m 14.336152,0 -0.332836,-2.17856 h -3.249689 l -1.180055,2.17856 h -1.779159 l 4.76258,-8.52665 h 2.105944 l 1.440272,8.52665 z m -0.986404,-7.21346 q -0.127083,0.3873 -0.593054,1.28293 l -1.282931,2.40852 h 2.390367 l -0.405454,-2.73531 q -0.108928,-0.81696 -0.108928,-0.95614 z m 8.090939,-1.31319 q 2.01517,0 3.086301,0.93799 1.07112,0.93799 1.07112,2.70505 0,1.42817 -0.5991,2.5235 -0.59911,1.09533 -1.736801,1.73075 -1.137694,0.62936 -2.547708,0.62936 h -3.497803 l 1.658128,-8.52665 z m -2.172511,7.14689 h 1.391859 q 0.96825,0 1.712592,-0.4115 0.750394,-0.41756 1.149797,-1.19821 0.405454,-0.78065 0.405454,-1.81547 0,-1.14375 -0.641465,-1.74285 -0.635414,-0.59911 -1.833623,-0.59911 h -1.065075 z m 6.898782,1.37976 1.65207,-8.52665 h 1.78522 l -1.65813,8.52665 z m 8.57506,0 -2.26328,-6.84432 q -0.13919,0.98036 -0.22996,1.44633 l -1.05297,5.39799 h -1.58551 l 1.65813,-8.52665 h 2.11804 l 2.28144,6.90483 0.0726,-0.49623 q 0.0666,-0.50228 0.1755,-1.05297 l 1.05297,-5.35563 h 1.58551 l -1.65813,8.52665 z m 8.07884,0.11498 q -1.81547,0 -2.84424,-0.95615 -1.02876,-0.9622 -1.02876,-2.68689 0,-1.51289 0.62936,-2.68689 0.63542,-1.17401 1.79126,-1.80337 1.1619,-0.63541 2.67479,-0.63541 1.37976,0 2.30565,0.62331 0.93194,0.62331 1.25267,1.74285 l -1.70654,0.47202 q -0.17549,-0.68383 -0.67777,-1.05902 -0.50228,-0.3752 -1.27083,-0.3752 -0.9622,0 -1.68839,0.45387 -0.72618,0.45386 -1.11348,1.28898 -0.3873,0.83511 -0.3873,1.9244 0,1.07717 0.57489,1.69443 0.58095,0.61121 1.63393,0.61121 0.65357,0 1.27082,-0.15734 0.61726,-0.15734 1.05298,-0.42361 l 0.27837,-1.37976 h -2.06964 l 0.23601,-1.25872 h 3.71566 l -0.63541,3.43729 q -0.94404,0.64751 -1.88809,0.91378 -0.94404,0.26022 -2.10594,0.26022 z"
           id="path1" />
        <path
           style="font-style:italic;font-weight:bold;font-family:'Liberation Sans';-inkscape-font-specification:'Liberation Sans, Bold Italic'"
           d="m 89.412419,203.60533 1.652077,-8.52665 h 6.705131 l -0.266268,1.37975 h -4.919921 l -0.417558,2.14226 h 4.550775 l -0.266268,1.37975 h -4.550776 l -0.435712,2.24513 h 5.168034 l -0.27232,1.37976 z m 12.490421,-8.52665 q 2.01517,0 3.0863,0.93799 1.07113,0.93799 1.07113,2.70505 0,1.42817 -0.59911,2.5235 -0.5991,1.09533 -1.7368,1.73075 -1.13769,0.62936 -2.5477,0.62936 h -3.497806 l 1.658128,-8.52665 z m -2.172506,7.14689 h 1.391856 q 0.96825,0 1.7126,-0.4115 0.75039,-0.41756 1.14979,-1.19821 0.40546,-0.78065 0.40546,-1.81547 0,-1.14375 -0.64147,-1.74285 -0.63541,-0.59911 -1.83362,-0.59911 h -1.06508 z m 11.159086,1.49474 q -1.81547,0 -2.84424,-0.95615 -1.02877,-0.9622 -1.02877,-2.68689 0,-1.51289 0.62937,-2.68689 0.63541,-1.17401 1.79126,-1.80337 1.1619,-0.63541 2.67479,-0.63541 1.37976,0 2.30565,0.62331 0.93194,0.62331 1.25267,1.74285 l -1.70654,0.47202 q -0.1755,-0.68383 -0.67778,-1.05902 -0.50228,-0.3752 -1.27082,-0.3752 -0.9622,0 -1.68839,0.45387 -0.72619,0.45386 -1.11349,1.28898 -0.3873,0.83511 -0.3873,1.9244 0,1.07717 0.5749,1.69443 0.58095,0.61121 1.63392,0.61121 0.65357,0 1.27083,-0.15734 0.61726,-0.15734 1.05297,-0.42361 l 0.27837,-1.37976 h -2.06963 l 0.23601,-1.25872 h 3.71566 l -0.63541,3.43729 q -0.94405,0.64751 -1.88809,0.91378 -0.94404,0.26022 -2.10594,0.26022 z m 5.37983,-0.11498 1.65208,-8.52665 h 6.70513 l -0.26627,1.37975 h -4.91992 l -0.41756,2.14226 h 4.55078 l -0.26627,1.37975 h -4.55077 l -0.43572,2.24513 h 5.16804 l -0.27232,1.37976 z"
           id="path2" />
      </g>
      <path
         d="m 135.7958,124.13568 c 3.4988,-0.99742 6.5082,-1.70835 9.4221,-2.24477 2.688,-0.49485 4.5828,-0.71174 4.5828,-0.71174 0,0 -1.9442,0.0544 -4.7858,0.40167 -2.9792,0.36408 -6.401,0.99222 -9.9066,1.99452 -3.0161,0.86109 -5.8673,1.85872 -8.5189,2.92499 -7.0183,2.95279 -14.984,5.06074 -23.4259,6.71631 -9.3445,1.83414 -19.6679,3.2436 -26.9477,4.25763 -7.4692,1.04041 -12.4142,1.77818 -12.4142,1.77818 0,0 5.0332,-0.58042 12.5875,-1.46315 7.4149,-0.86645 17.7667,-2.10481 27.2828,-3.96949 8.5385,-1.67451 16.6439,-3.81601 23.7933,-6.82405 2.594,-1.043 5.3847,-2.01902 8.3306,-2.8601 z"
         style="fill:#01889f;fill-opacity:1;fill-rule:nonzero;stroke:none;stroke-width:0.661967;stroke-dasharray:none;stroke-opacity:1"
         id="path6" />
      <path
         d="m 132.5838,170.94206 c 3.4988,1.72284 6.5082,2.95082 9.4221,3.87738 2.688,0.85474 4.5828,1.22938 4.5828,1.22938 0,0 -1.9442,-0.094 -4.7858,-0.6938 -2.9792,-0.62887 -6.401,-1.71386 -9.9066,-3.44511 -3.0161,-1.48736 -5.8673,-3.21056 -8.5189,-5.05232 -7.0183,-5.10032 -14.984,-8.74137 -23.4259,-11.60101 -9.3445,-3.16809 -19.6679,-5.60264 -26.9477,-7.35417 -7.4692,-1.79709 -12.4142,-3.07143 -12.4142,-3.07143 0,0 5.0332,1.00255 12.5875,2.52729 7.4149,1.4966 17.7667,3.63562 27.2828,6.85645 8.5385,2.89237 16.6439,6.59137 23.7933,11.78713 2.594,1.80156 5.3847,3.48742 8.3306,4.94021 z"
         style="fill:#01889f;fill-opacity:1;fill-rule:nonzero;stroke:none;stroke-width:0.87;stroke-dasharray:none;stroke-opacity:1"
         id="path7" />
    </g>
  </g>
</svg>
